<?xml version="1.0" standalone="no"?>
<!DOCTYPE svg PUBLIC "-//W3C//DTD SVG 1.1//EN" "http://www.w3.org/Graphics/SVG/1.1/DTD/svg11.dtd">
<!--Generator: Xara Designer (www.xara.com), SVG filter version: 6.1.0.16-->
<svg stroke-width="0.501" stroke-linejoin="bevel" fill-rule="evenodd" xmlns:xlink="http://www.w3.org/1999/xlink" xmlns="http://www.w3.org/2000/svg" version="1.1" overflow="visible" width="720pt" height="720pt" viewBox="0 0 720 720">
 <defs>
  <linearGradient id="LinearGradient" gradientUnits="userSpaceOnUse" x1="0" y1="0" x2="0" y2="-500.947" gradientTransform="translate(342.537 606.601)">
   <stop offset="0" stop-color="#ffffff"/>
   <stop offset="1" stop-color="#e5e5e5"/>
  </linearGradient>
 </defs>
 <g id="Document" fill="none" stroke="black" font-family="Times New Roman" font-size="16" transform="scale(1 -1)">
  <g id="Spread" transform="translate(0 -720)">
   <g id="Layer 1">
    <path d="M 165.681,70.387 C 5.813,177.649 -36.873,394.456 70.387,554.319 C 177.649,714.187 394.456,756.873 554.319,649.613 C 714.187,542.351 756.873,325.544 649.613,165.681 C 542.351,5.813 325.544,-36.873 165.681,70.387 Z M 541.011,238.548 C 552.924,256.304 561.88,275.188 567.99,294.607 L 152.084,294.607 C 166.402,248.958 195.759,207.698 238.548,178.989 C 338.466,111.946 473.972,138.632 541.011,238.548 Z M 481.452,541.011 C 381.534,608.054 246.028,581.368 178.989,481.452 C 167.076,463.696 158.12,444.817 152.01,425.393 L 567.916,425.393 C 553.593,471.038 524.238,512.302 481.452,541.011 Z" stroke="none" stroke-width="11.822" stroke-linejoin="miter" stroke-linecap="round" marker-start="none" marker-end="none" stroke-miterlimit="79.8403193612775" fill="url(#LinearGradient)"/>
    <path d="M 159.413,61.046 C -5.612,171.768 -49.675,395.565 61.046,560.586 C 171.768,725.611 395.565,769.674 560.586,658.953 C 725.611,548.231 769.674,324.434 658.953,159.413 C 548.231,-5.612 324.434,-49.675 159.413,61.046 Z M 648.988,166.098 C 756.017,325.617 713.422,541.958 553.901,648.988 C 394.382,756.017 178.041,713.422 71.011,553.901 C -36.018,394.382 6.577,178.041 166.098,71.011 C 325.617,-36.018 541.958,6.577 648.988,166.098 Z M 233.376,171.282 C 188.769,201.211 158.156,244.236 143.229,291.827 L 140.784,299.623 L 579.299,299.623 L 576.844,291.821 C 570.471,271.57 561.133,251.882 548.717,233.376 C 478.823,129.205 337.55,101.385 233.376,171.282 Z M 538.752,240.061 C 547.579,253.219 554.76,266.998 560.343,281.152 L 562.634,287.623 L 157.48,287.623 L 160.674,278.731 C 176.272,240.344 203.086,206.055 240.061,181.247 C 338.733,115.042 472.55,141.394 538.752,240.061 Z M 140.701,420.377 L 143.155,428.177 C 149.528,448.434 158.866,468.117 171.282,486.623 C 241.176,590.794 382.449,618.614 486.624,548.717 C 531.226,518.787 561.838,475.758 576.769,428.173 L 579.216,420.377 L 140.701,420.377 Z M 479.937,538.752 C 381.266,604.957 247.449,578.605 181.247,479.938 C 172.419,466.78 165.239,453.003 159.655,438.848 L 157.363,432.377 L 562.517,432.377 L 559.323,441.265 C 543.721,479.65 516.909,513.944 479.937,538.752 Z" stroke="none" fill="#000000" stroke-width="0.5" fill-rule="evenodd" marker-start="none" marker-end="none" stroke-miterlimit="79.8403193612775"/>
   </g>
  </g>
 </g>
</svg>
